<svg width="30" height="18" viewBox="0 0 30 18" fill="none" xmlns="http://www.w3.org/2000/svg">
<path d="M9 18C13.9706 18 18 13.9706 18 9C18 4.02944 13.9706 0 9 0C4.02944 0 0 4.02944 0 9C0 13.9706 4.02944 18 9 18Z" fill="#EE0005"/>
<path d="M20.1816 18C25.1522 18 29.1816 13.9706 29.1816 9C29.1816 4.02944 25.1522 0 20.1816 0C15.2111 0 11.1816 4.02944 11.1816 9C11.1816 13.9706 15.2111 18 20.1816 18Z" fill="#F9A000"/>
<path d="M11.1816 8.99988C11.1816 11.8576 12.5138 14.4039 14.5907 16.0525C16.6675 14.4038 17.9997 11.8576 17.9997 8.99988C17.9997 6.1422 16.6676 3.59586 14.5907 1.94727C12.5138 3.59599 11.1816 6.14226 11.1816 8.99988Z" fill="#FF6300"/>
</svg>
