<svg width="28" xmlns="http://www.w3.org/2000/svg" viewBox="0 0 1920 613.3"><path d="M732 11 472 604H307L189 131c-7-30-13-40-36-52C116 59 54 40 0 28l4-17h265c34 0 64 22 71 60l61 344L569 11Zm640 399c3-156-218-165-215-235 1-21 22-44 67-49 22-3 84-6 153 26l29-126c-37-13-85-26-145-26-154 0-264 81-266 196-3 86 75 133 134 162 60 29 80 47 80 73-1 40-50 58-94 58-79 1-124-21-160-37l-30 130c36 16 103 31 173 31 164 0 272-79 274-203m404 194h144L1803 11h-133c-30 0-56 17-67 43l-242 550h164l33-89h200Zm-171-210 85-223 44 223ZM955 11 818 604H662L799 11Z" fill="#1434cb"/></svg>